<svg width="32" height="32" viewBox="0 0 32 32" fill="none" xmlns="http://www.w3.org/2000/svg">
<rect width="32" height="32" rx="6" fill="#515151"/>
<g filter="url(#filter0_i_295_32)">
<path fill-rule="evenodd" clip-rule="evenodd" d="M18.6402 8.30551C16.9036 7.89816 15.0964 7.89816 13.3598 8.30551C10.8519 8.89377 8.89377 10.8519 8.30551 13.3598C7.89816 15.0964 7.89816 16.9036 8.30551 18.6402C8.89377 21.1481 10.8519 23.1062 13.3598 23.6945C15.0964 24.1018 16.9036 24.1018 18.6402 23.6945C21.1481 23.1062 23.1062 21.1481 23.6945 18.6402C24.1018 16.9036 24.1018 15.0964 23.6945 13.3598C23.1062 10.8519 21.1481 8.89377 18.6402 8.30551ZM15.1489 12.5972C15.3832 12.8315 15.3832 13.2114 15.1489 13.4457L13.4471 15.1476C13.2127 15.3819 12.8328 15.3819 12.5985 15.1476L11.7476 14.2967C11.5133 14.0624 11.5133 13.6825 11.7476 13.4481C11.9819 13.2138 12.3618 13.2138 12.5961 13.4481L13.0228 13.8748L14.3004 12.5972C14.5347 12.3629 14.9146 12.3629 15.1489 12.5972ZM16.2519 14.2979C16.2519 13.9665 16.5206 13.6979 16.8519 13.6979H19.8302C20.1615 13.6979 20.4302 13.9665 20.4302 14.2979C20.4302 14.6292 20.1615 14.8979 19.8302 14.8979H16.8519C16.5206 14.8979 16.2519 14.6292 16.2519 14.2979ZM15.1489 16.8518C15.3832 17.0861 15.3832 17.466 15.1489 17.7004L13.4471 19.4022C13.2127 19.6365 12.8328 19.6365 12.5985 19.4022L11.7476 18.5513C11.5133 18.317 11.5133 17.9371 11.7476 17.7027C11.9819 17.4684 12.3618 17.4684 12.5961 17.7027L13.0228 18.1294L14.3004 16.8518C14.5347 16.6175 14.9146 16.6175 15.1489 16.8518ZM16.2519 18.5525C16.2519 18.2211 16.5206 17.9525 16.8519 17.9525H19.8302C20.1615 17.9525 20.4302 18.2211 20.4302 18.5525C20.4302 18.8838 20.1615 19.1525 19.8302 19.1525H16.8519C16.5206 19.1525 16.2519 18.8838 16.2519 18.5525Z" fill="white"/>
</g>
<defs>
<filter id="filter0_i_295_32" x="8" y="8" width="16" height="20" filterUnits="userSpaceOnUse" color-interpolation-filters="sRGB">
<feFlood flood-opacity="0" result="BackgroundImageFix"/>
<feBlend mode="normal" in="SourceGraphic" in2="BackgroundImageFix" result="shape"/>
<feColorMatrix in="SourceAlpha" type="matrix" values="0 0 0 0 0 0 0 0 0 0 0 0 0 0 0 0 0 0 127 0" result="hardAlpha"/>
<feOffset dy="4"/>
<feGaussianBlur stdDeviation="2"/>
<feComposite in2="hardAlpha" operator="arithmetic" k2="-1" k3="1"/>
<feColorMatrix type="matrix" values="0 0 0 0 0.574056 0 0 0 0 0.566226 0 0 0 0 0.566226 0 0 0 0.25 0"/>
<feBlend mode="normal" in2="shape" result="effect1_innerShadow_295_32"/>
</filter>
</defs>
</svg>
