<svg width="32" height="32" viewBox="0 0 32 32" fill="none" xmlns="http://www.w3.org/2000/svg">
<rect width="32" height="32" rx="6" fill="#515151"/>
<path d="M16.1739 11.1653C16.1274 11.1208 16.0655 11.0959 16.0011 11.0959C15.9367 11.0959 15.8748 11.1208 15.8283 11.1653L10.0752 16.6612C10.0508 16.6846 10.0313 16.7127 10.0181 16.7438C10.0048 16.7749 9.99797 16.8084 9.99801 16.8422L9.99707 22.0003C9.99707 22.2655 10.1024 22.5199 10.29 22.7074C10.4775 22.8949 10.7319 23.0003 10.9971 23.0003H14.0002C14.1328 23.0003 14.26 22.9476 14.3537 22.8538C14.4475 22.7601 14.5002 22.6329 14.5002 22.5003V18.2503C14.5002 18.184 14.5265 18.1204 14.5734 18.0735C14.6203 18.0266 14.6839 18.0003 14.7502 18.0003H17.2502C17.3165 18.0003 17.3801 18.0266 17.427 18.0735C17.4739 18.1204 17.5002 18.184 17.5002 18.2503V22.5003C17.5002 22.6329 17.5529 22.7601 17.6466 22.8538C17.7404 22.9476 17.8676 23.0003 18.0002 23.0003H21.0021C21.2673 23.0003 21.5216 22.8949 21.7092 22.7074C21.8967 22.5199 22.0021 22.2655 22.0021 22.0003V16.8422C22.0021 16.8084 21.9953 16.7749 21.982 16.7438C21.9688 16.7127 21.9493 16.6846 21.9249 16.6612L16.1739 11.1653Z" fill="white"/>
<path d="M23.3414 15.6307L21.0039 13.3944V10.001C21.0039 9.86837 20.9513 9.74119 20.8575 9.64742C20.7637 9.55365 20.6365 9.50098 20.5039 9.50098H19.0039C18.8713 9.50098 18.7441 9.55365 18.6504 9.64742C18.5566 9.74119 18.5039 9.86837 18.5039 10.001V11.001L16.6939 9.27035C16.5246 9.0991 16.2727 9.00098 16.0005 9.00098C15.7292 9.00098 15.478 9.0991 15.3086 9.27066L8.66175 15.63C8.46738 15.8175 8.443 16.126 8.61988 16.3291C8.66429 16.3804 8.71868 16.4221 8.77972 16.4517C8.84076 16.4812 8.90719 16.4981 8.97495 16.5012C9.04271 16.5043 9.1104 16.4936 9.17389 16.4697C9.23738 16.4458 9.29534 16.4092 9.34425 16.3622L15.8286 10.166C15.8751 10.1215 15.9371 10.0966 16.0014 10.0966C16.0658 10.0966 16.1277 10.1215 16.1742 10.166L22.6592 16.3622C22.7548 16.4538 22.8827 16.5038 23.0151 16.5013C23.1474 16.4987 23.2733 16.4437 23.3652 16.3485C23.5571 16.1497 23.5411 15.8216 23.3414 15.6307Z" fill="white"/>
</svg>
