<svg width="32" height="32" viewBox="0 0 32 32" fill="none" xmlns="http://www.w3.org/2000/svg">
<rect width="32" height="32" rx="6" fill="#515151"/>
<g filter="url(#filter0_i_295_83)">
<path d="M13.4608 10.104C12.8698 9.96534 12.2548 9.96534 11.6639 10.104C10.8899 10.2855 10.2855 10.8899 10.104 11.6639C9.96534 12.2548 9.96534 12.8698 10.104 13.4608C10.2855 14.2348 10.8899 14.8391 11.6639 15.0207C12.2548 15.1593 12.8698 15.1593 13.4608 15.0207C14.2348 14.8391 14.8391 14.2348 15.0207 13.4608C15.1593 12.8698 15.1593 12.2548 15.0207 11.6639C14.8391 10.8899 14.2348 10.2855 13.4608 10.104Z" fill="white"/>
<path d="M13.4608 16.9793C12.8698 16.8407 12.2548 16.8407 11.6639 16.9793C10.8899 17.1609 10.2855 17.7652 10.104 18.5392C9.96534 19.1302 9.96534 19.7452 10.104 20.3361C10.2855 21.1101 10.8899 21.7145 11.6639 21.896C12.2548 22.0347 12.8698 22.0347 13.4608 21.896C14.2348 21.7145 14.8391 21.1101 15.0207 20.3361C15.1593 19.7452 15.1593 19.1302 15.0207 18.5392C14.8391 17.7652 14.2348 17.1609 13.4608 16.9793Z" fill="white"/>
<path d="M20.3361 10.104C19.7452 9.96534 19.1302 9.96534 18.5392 10.104C17.7652 10.2855 17.1609 10.8899 16.9793 11.6639C16.8407 12.2548 16.8407 12.8698 16.9793 13.4608C17.1609 14.2348 17.7652 14.8391 18.5392 15.0207C19.1302 15.1593 19.7452 15.1593 20.3361 15.0207C21.1101 14.8391 21.7145 14.2348 21.896 13.4608C22.0347 12.8698 22.0347 12.2548 21.896 11.6639C21.7145 10.8899 21.1101 10.2855 20.3361 10.104Z" fill="white"/>
<path d="M20.3361 16.9793C19.7452 16.8407 19.1302 16.8407 18.5392 16.9793C17.7652 17.1609 17.1609 17.7652 16.9793 18.5392C16.8407 19.1302 16.8407 19.7452 16.9793 20.3361C17.1609 21.1101 17.7652 21.7145 18.5392 21.896C19.1302 22.0347 19.7452 22.0347 20.3361 21.896C21.1101 21.7145 21.7145 21.1101 21.896 20.3361C22.0347 19.7452 22.0347 19.1302 21.896 18.5392C21.7145 17.7652 21.1101 17.1609 20.3361 16.9793Z" fill="white"/>
</g>
<defs>
<filter id="filter0_i_295_83" x="10" y="10" width="12" height="16" filterUnits="userSpaceOnUse" color-interpolation-filters="sRGB">
<feFlood flood-opacity="0" result="BackgroundImageFix"/>
<feBlend mode="normal" in="SourceGraphic" in2="BackgroundImageFix" result="shape"/>
<feColorMatrix in="SourceAlpha" type="matrix" values="0 0 0 0 0 0 0 0 0 0 0 0 0 0 0 0 0 0 127 0" result="hardAlpha"/>
<feOffset dy="4"/>
<feGaussianBlur stdDeviation="2"/>
<feComposite in2="hardAlpha" operator="arithmetic" k2="-1" k3="1"/>
<feColorMatrix type="matrix" values="0 0 0 0 0.574056 0 0 0 0 0.566226 0 0 0 0 0.566226 0 0 0 0.25 0"/>
<feBlend mode="normal" in2="shape" result="effect1_innerShadow_295_83"/>
</filter>
</defs>
</svg>
