<svg width="32" height="32" viewBox="0 0 32 32" fill="none" xmlns="http://www.w3.org/2000/svg">
<rect width="32" height="32" rx="6" fill="#515151"/>
<g clip-path="url(#clip0_28_710)">
<g filter="url(#filter0_i_28_710)">
<path d="M6.67188 8H22.6719V24H6.67188V8Z" fill="#F9F9F9"/>
</g>
<path d="M9.30469 18.6667C10.2867 20.6407 12.3187 22 14.6734 22C17.9874 22 20.6734 19.314 20.6734 16C20.6734 12.686 17.9874 10 14.6734 10C12.3187 10 10.2867 11.3593 9.30469 13.3333" fill="#F9F9F9"/>
<path d="M9.30469 18.6667C10.2867 20.6407 12.3187 22 14.6734 22C17.9874 22 20.6734 19.314 20.6734 16C20.6734 12.686 17.9874 10 14.6734 10C12.3187 10 10.2867 11.3593 9.30469 13.3333" stroke="#F9F9F9" stroke-width="1.5" stroke-linecap="round" stroke-linejoin="round"/>
<path d="M14.6719 14L16.6719 16L14.6719 18" stroke="black" stroke-width="1.5" stroke-linecap="round" stroke-linejoin="round"/>
<path d="M15.6719 16H7.67188" stroke="black" stroke-width="1.5" stroke-linecap="round" stroke-linejoin="round"/>
</g>
<defs>
<filter id="filter0_i_28_710" x="6.67188" y="8" width="16" height="20" filterUnits="userSpaceOnUse" color-interpolation-filters="sRGB">
<feFlood flood-opacity="0" result="BackgroundImageFix"/>
<feBlend mode="normal" in="SourceGraphic" in2="BackgroundImageFix" result="shape"/>
<feColorMatrix in="SourceAlpha" type="matrix" values="0 0 0 0 0 0 0 0 0 0 0 0 0 0 0 0 0 0 127 0" result="hardAlpha"/>
<feOffset dy="4"/>
<feGaussianBlur stdDeviation="2"/>
<feComposite in2="hardAlpha" operator="arithmetic" k2="-1" k3="1"/>
<feColorMatrix type="matrix" values="0 0 0 0 0.574056 0 0 0 0 0.566226 0 0 0 0 0.566226 0 0 0 0.25 0"/>
<feBlend mode="normal" in2="shape" result="effect1_innerShadow_28_710"/>
</filter>
<clipPath id="clip0_28_710">
<rect x="8" y="8" width="16" height="16" rx="8" fill="white"/>
</clipPath>
</defs>
</svg>
