<svg width="40" height="40" viewBox="0 0 40 40" fill="none" xmlns="http://www.w3.org/2000/svg">
<g filter="url(#filter0_i_28_1375)">
<path d="M13.652 5.25991C12.1746 4.91336 10.637 4.91336 9.15963 5.25991C7.22465 5.7138 5.7138 7.22465 5.25991 9.15963C4.91336 10.637 4.91336 12.1746 5.25991 13.652C5.7138 15.587 7.22465 17.0978 9.15963 17.5517C10.637 17.8983 12.1746 17.8983 13.652 17.5517C15.587 17.0978 17.0978 15.587 17.5517 13.652C17.8983 12.1746 17.8983 10.637 17.5517 9.15963C17.0978 7.22465 15.587 5.7138 13.652 5.25991Z" fill="#FBFFFF"/>
<path d="M13.652 22.4483C12.1746 22.1017 10.637 22.1017 9.15963 22.4483C7.22465 22.9022 5.7138 24.413 5.25991 26.348C4.91336 27.8254 4.91336 29.363 5.25991 30.8404C5.7138 32.7754 7.22465 34.2862 9.15963 34.7401C10.637 35.0866 12.1746 35.0866 13.652 34.7401C15.587 34.2862 17.0978 32.7754 17.5517 30.8404C17.8983 29.363 17.8983 27.8254 17.5517 26.348C17.0978 24.413 15.587 22.9022 13.652 22.4483Z" fill="#FBFFFF"/>
<path d="M30.8404 5.25991C29.363 4.91336 27.8254 4.91336 26.348 5.25991C24.413 5.7138 22.9022 7.22465 22.4483 9.15963C22.1017 10.637 22.1017 12.1746 22.4483 13.652C22.9022 15.587 24.413 17.0978 26.348 17.5517C27.8254 17.8983 29.363 17.8983 30.8404 17.5517C32.7754 17.0978 34.2862 15.587 34.7401 13.652C35.0866 12.1746 35.0866 10.637 34.7401 9.15963C34.2862 7.22465 32.7754 5.7138 30.8404 5.25991Z" fill="#FBFFFF"/>
<path d="M30.8404 22.4483C29.363 22.1017 27.8254 22.1017 26.348 22.4483C24.413 22.9022 22.9022 24.413 22.4483 26.348C22.1017 27.8254 22.1017 29.363 22.4483 30.8404C22.9022 32.7754 24.413 34.2862 26.348 34.7401C27.8254 35.0866 29.363 35.0866 30.8404 34.7401C32.7754 34.2862 34.2862 32.7754 34.7401 30.8404C35.0866 29.363 35.0866 27.8254 34.7401 26.348C34.2862 24.413 32.7754 22.9022 30.8404 22.4483Z" fill="#FBFFFF"/>
</g>
<defs>
<filter id="filter0_i_28_1375" x="5" y="5" width="30" height="34" filterUnits="userSpaceOnUse" color-interpolation-filters="sRGB">
<feFlood flood-opacity="0" result="BackgroundImageFix"/>
<feBlend mode="normal" in="SourceGraphic" in2="BackgroundImageFix" result="shape"/>
<feColorMatrix in="SourceAlpha" type="matrix" values="0 0 0 0 0 0 0 0 0 0 0 0 0 0 0 0 0 0 127 0" result="hardAlpha"/>
<feOffset dy="4"/>
<feGaussianBlur stdDeviation="2"/>
<feComposite in2="hardAlpha" operator="arithmetic" k2="-1" k3="1"/>
<feColorMatrix type="matrix" values="0 0 0 0 0.574056 0 0 0 0 0.566226 0 0 0 0 0.566226 0 0 0 0.25 0"/>
<feBlend mode="normal" in2="shape" result="effect1_innerShadow_28_1375"/>
</filter>
</defs>
</svg>
