<svg width="60" height="60" viewBox="0 0 60 60" fill="none" xmlns="http://www.w3.org/2000/svg">
<g clip-path="url(#clip0_42_846)">
<path d="M30 60C46.5685 60 60 46.5685 60 30C60 13.4315 46.5685 0 30 0C13.4315 0 0 13.4315 0 30C0 46.5685 13.4315 60 30 60Z" fill="#31AF91"/>
<path d="M25.4531 45.5625L11.625 31.7344C11.4375 31.5469 11.4375 31.2656 11.625 31.0781L15.6094 27.0937C15.7969 26.9062 16.0781 26.9062 16.2656 27.0937L25.7812 36.6094L43.6875 18.7031C43.875 18.5156 44.1562 18.5156 44.3438 18.7031L48.3281 22.6875C48.5156 22.875 48.5156 23.1562 48.3281 23.3437L26.1094 45.5625C25.9219 45.75 25.6406 45.75 25.4531 45.5625Z" fill="white"/>
</g>
<defs>
<clipPath id="clip0_42_846">
<rect width="60" height="60" fill="white"/>
</clipPath>
</defs>
</svg>
